<svg width="103" height="27" viewBox="0 0 103 27" fill="none" xmlns="http://www.w3.org/2000/svg">
<path d="M12.1479 21.317C12.1479 21.8891 11.8574 22.1747 11.2776 22.1747H5.32566V7.25242H11.2776C11.8574 7.25242 12.1479 7.53899 12.1479 8.11014V21.317ZM12.0086 2.75873H0V26.6694H12.0086C13.7718 26.6694 15.1237 26.2065 16.0634 25.2803C17.0035 24.3537 17.4732 23.0217 17.4732 21.2836V8.14454C17.4732 6.40672 17.0035 5.07438 16.0634 4.14785C15.1237 3.22166 13.7718 2.75873 12.0086 2.75873Z" fill="#010001"/>
<path d="M44.9176 2.75873H39.5444V26.6694H54.2587V22.1757H44.9176V2.75873Z" fill="#010001"/>
<path d="M71.7211 8.1104C71.7211 7.53926 72.0156 7.25269 72.6036 7.25269H78.2867V13.1872H72.6036C72.0156 13.1872 71.7211 12.9013 71.7211 12.3291V8.1104ZM69.3913 17.4069L66.2144 26.6694H72.0386L74.8276 17.6818H78.2867V26.6694H83.6876V2.75873L71.5094 2.75906C69.8154 2.75906 68.527 3.18758 67.6441 4.04563C66.7618 4.903 66.3206 6.15516 66.3206 7.80178V12.6388C66.3206 15.1548 67.344 16.7439 69.3913 17.4069Z" fill="#010001"/>
<path d="M62.5357 2.75873H57.0178V26.6694H62.5357V2.75873Z" fill="#010001"/>
<path d="M30.8129 16.9458H22.2664V12.4443H30.8129V7.2214H21.1519V2.72015H23.1537V0L33.7492 2.72015H35.8661V26.6696H21.1519V22.1687H30.8129V16.9458Z" fill="#010001"/>
<path d="M92.7354 22.1758V16.9614H101.816V12.4671H92.7354V7.25269H103V2.75873H87.3662V26.6694H103V22.1758H92.7354Z" fill="#010001"/>
</svg>
